<?xml version="1.0" encoding="utf-8"?>
<svg version="1.1" xmlns:xlink="http://www.w3.org/1999/xlink" width="71px" height="20px" xmlns="http://www.w3.org/2000/svg">
  <g transform="matrix(1 0 0 1 -368 -189 )">
    <path d="M 431.1511766742 189.5  C 431.1511766742 189.5  432.726247101449 189.721840905246  432.726247101449 189.721840905246  C 432.726247101449 189.721840905246  438.454501846906 199  438.454501846906 199  C 438.454501846906 199  432.726247101449 208.278159094754  432.726247101449 208.278159094754  C 432.726247101449 208.278159094754  431.1511766742 208.5  431.1511766742 208.5  C 431.1511766742 208.5  368.5 208.5  368.5 208.5  C 368.5 208.5  368.5 189.5  368.5 189.5  C 368.5 189.5  431.1511766742 189.5  431.1511766742 189.5  Z " fill-rule="nonzero" fill="#e6f9fc" stroke="none" />
    <path d="M 431.1511766742 189.5  C 431.1511766742 189.5  432.726247101449 189.721840905246  432.726247101449 189.721840905246  C 432.726247101449 189.721840905246  438.454501846906 199  438.454501846906 199  C 438.454501846906 199  432.726247101449 208.278159094754  432.726247101449 208.278159094754  C 432.726247101449 208.278159094754  431.1511766742 208.5  431.1511766742 208.5  C 431.1511766742 208.5  368.5 208.5  368.5 208.5  C 368.5 208.5  368.5 189.5  368.5 189.5  C 368.5 189.5  431.1511766742 189.5  431.1511766742 189.5  Z " stroke-width="1" stroke="#0079fe" fill="none" />
  </g>
</svg>