<?xml version="1.0" standalone="no"?><!DOCTYPE svg PUBLIC "-//W3C//DTD SVG 1.1//EN" "http://www.w3.org/Graphics/SVG/1.1/DTD/svg11.dtd"><svg t="1607418619249" class="icon" viewBox="0 0 1024 1024" version="1.1" xmlns="http://www.w3.org/2000/svg" p-id="3168" xmlns:xlink="http://www.w3.org/1999/xlink" width="150" height="150"><defs><style type="text/css"></style></defs><path d="M656 249c-117.1 0-218.7 66.5-269.3 163.7 16.7 3.7 33 9 48.9 15.6 34.2 14.4 64.9 35.2 91.2 61.5 26.4 26.4 47 57 61.5 91.2 15 35.4 22.6 72.9 22.6 111.7s-7.6 76.3-22.6 111.7c-5.6 13.3-12.2 26.1-19.7 38.3 28.4 8.5 57.8 12.9 87.5 12.9 167.5 0 303.3-135.8 303.3-303.3C959.3 384.8 823.5 249 656 249zM430.2 84c0.7 48.7 24.8 96.3 68.7 125 43.9 28.7 97 31.8 142 13.1-0.7-48.7-24.8-96.3-68.7-125-43.9-28.8-97.1-32-142-13.1z m242.6 138.9c29 12.1 63.1 10.1 91.4-8.3 28.2-18.5 43.7-49.1 44.2-80.4-29-12.1-63.1-10.1-91.4 8.3-28.3 18.4-43.8 49.1-44.2 80.4zM363.5 716.3l96.9 115.6c9.2-9 17.3-18.8 24.4-29.3 15.1-22.1 25.6-47.2 30.6-73.7-50.6-4.3-86.7-7.2-112.4-9.3-17.7-1.6-30.5-2.6-39.5-3.3z m-234.1-22.1c0.2 50.2 19.7 88 35 110l114.9-96.4-149.9-13.6z m192.8-195.8c-39.7 0.6-79.5 13.6-111.2 36.1l97.8 116.6 13.4-152.7z m0 0" fill="#5385D9" p-id="3169"></path><path d="M366.9 680.8l15.1 1.3L518.6 694c-0.4-42.2-12-80-34.7-112.4-35.1 29.6-78.9 66.7-106.5 90.2-3.8 3.5-7.4 6.4-10.5 9z m0 0" fill="#5385D9" p-id="3170"></path><path d="M323.9 951.9c91.4 0 171.6-47.3 217.8-118.7 26.2-40.5 41.4-88.7 41.4-140.5 0-125.7-89.5-230.5-208.3-254.2-16.5-3.2-33.5-5-50.9-5-143.1 0-259.2 116.1-259.2 259.2s116 259.2 259.2 259.2z m0-484.1c13.6 0 26.8 1.2 39.8 3.5 105.2 18.8 185 110.7 185 221.3 0 46.6-14.2 89.8-38.3 125.6-40.4 59.9-108.9 99.2-186.5 99.2-124.1 0-224.8-100.6-224.8-224.9 0-124.1 100.6-224.7 224.8-224.7z m0 0" fill="#5385D9" p-id="3171"></path><path d="M288.2 884.4l13.1-149.5L186.8 831c27.7 27.5 63.2 46.2 101.4 53.4zM184.5 557.1c-27.4 28.2-45.6 64.1-52.3 102.6L282 673.4l-97.5-116.3z m249 297l-97.4-116.3L323 887.6h0.2c50.6 0.1 88.6-19 110.3-33.5z m28-299.1c-28.5-28.3-65-47.2-104.4-54h-0.2l-0.3 3-3.8 43.2-9.4 106.6c5.9-4.9 13.1-10.9 21-17.6 29.1-24.2 68.5-57.3 97.1-81.2z m0 0" fill="#5385D9" p-id="3172"></path></svg>